<?xml version="1.0" standalone="no"?>
<!DOCTYPE svg PUBLIC "-//W3C//DTD SVG 20010904//EN"
 "http://www.w3.org/TR/2001/REC-SVG-20010904/DTD/svg10.dtd">
<svg version="1.0" xmlns="http://www.w3.org/2000/svg"
 width="300.000000pt" height="300.000000pt" viewBox="0 0 300.000000 300.000000"
 preserveAspectRatio="xMidYMid meet">
<metadata>
Created by potrace 1.14, written by Peter Selinger 2001-2017
</metadata>
<g transform="translate(0.000000,300.000000) scale(0.100000,-0.100000)"
fill="#000000" stroke="none">
<path d="M1490 2829 c0 -23 -41 -92 -69 -117 -56 -50 -125 -61 -204 -33 -32
11 -57 18 -57 17 0 -2 8 -18 17 -37 10 -19 18 -56 19 -84 4 -89 -41 -159 -122
-192 -51 -21 -54 -28 -17 -38 59 -14 114 -68 136 -130 15 -45 13 -79 -8 -144
-8 -25 -15 -46 -15 -48 0 -2 18 6 41 17 54 28 124 28 178 1 44 -23 101 -92
101 -122 0 -34 18 -29 34 10 47 120 178 171 284 112 32 -17 37 -9 17 29 -20
38 -25 113 -12 158 14 46 80 109 129 124 l40 12 -48 23 c-66 32 -110 77 -124
128 -13 47 -7 132 10 149 5 5 10 18 10 27 0 15 -4 15 -40 -3 -99 -49 -211 -10
-262 91 -32 62 -38 70 -38 50z"/>
<path d="M557 2449 c-9 -6 -17 -17 -17 -25 0 -8 206 -222 458 -474 l459 -458
-460 -460 c-391 -391 -458 -462 -452 -481 3 -11 14 -21 23 -21 9 0 223 206
476 459 l458 458 460 -460 c440 -441 460 -459 484 -448 20 9 23 15 15 28 -5
10 -213 222 -462 471 l-453 452 464 465 c400 401 462 466 450 479 -7 9 -20 16
-29 16 -9 0 -222 -206 -473 -457 l-457 -457 -461 459 c-253 253 -461 461 -463
462 -1 1 -10 -3 -20 -8z"/>
<path d="M614 1947 c-15 -14 -31 -45 -42 -86 -23 -86 -42 -88 -77 -10 -44 99
-79 118 -143 79 -65 -40 -60 -85 20 -166 27 -29 46 -54 40 -58 -5 -3 -30 -2
-56 3 -102 19 -156 -5 -156 -70 0 -82 45 -106 149 -79 83 21 97 10 52 -43 -71
-82 -81 -130 -34 -166 60 -48 115 -33 144 39 l19 45 -2 -74 c-1 -67 -5 -98
-22 -178 -3 -13 -18 -50 -34 -83 -23 -48 -26 -64 -17 -77 18 -24 48 -8 69 37
19 39 20 40 58 33 66 -10 81 -10 133 5 63 18 109 52 146 110 42 66 39 72 -27
66 -73 -6 -167 -38 -221 -75 -46 -32 -49 -29 -33 36 5 22 10 81 11 130 1 75 3
85 11 60 15 -43 57 -85 86 -85 38 0 81 31 93 67 13 40 2 61 -61 119 -22 21
-40 43 -40 51 0 7 1 13 3 13 2 0 30 -5 62 -11 101 -18 137 -1 149 72 6 38 -26
87 -61 91 -15 2 -56 -4 -91 -14 -82 -22 -90 -8 -33 65 57 74 60 122 9 151 -45
27 -75 28 -104 3z"/>
<path d="M2363 1898 c-35 -52 -107 -108 -170 -131 l-47 -17 -42 41 c-43 42
-68 47 -81 13 -4 -10 9 -30 37 -59 38 -39 42 -48 37 -78 -9 -56 -43 -120 -92
-174 -25 -28 -45 -53 -45 -55 0 -3 24 -5 52 -7 29 -1 53 -3 54 -4 1 -1 -9 -25
-22 -53 -13 -28 -27 -79 -31 -113 l-6 -63 41 26 c54 34 62 33 62 -10 0 -19 12
-61 27 -92 29 -61 25 -64 59 31 l17 47 26 -28 c23 -25 61 -52 74 -52 2 0 3 30
2 68 -2 65 8 117 27 137 13 14 65 -49 100 -123 l31 -64 18 29 c10 15 21 40 25
56 l6 29 21 -20 c27 -25 118 -50 172 -48 l40 1 -1 43 c-1 54 -22 119 -52 159
l-24 32 25 6 c14 4 37 19 51 34 l26 27 -60 13 c-33 7 -82 28 -110 45 l-51 32
38 21 c21 12 54 24 73 27 19 3 48 8 64 11 16 2 31 7 34 9 8 9 -29 46 -61 63
-35 17 -27 29 39 63 41 21 44 25 29 36 -22 16 -116 28 -150 20 l-25 -6 19 50
c10 27 15 52 11 55 -20 12 -130 -37 -177 -78 l-22 -19 -16 56 c-9 31 -18 56
-20 56 -2 0 -16 -19 -32 -42z"/>
<path d="M1439 1191 c-19 -15 -22 -28 -22 -94 0 -43 -3 -80 -7 -82 -4 -3 -28
13 -52 34 l-45 40 -17 -30 c-27 -46 -15 -91 34 -127 64 -46 83 -78 86 -137 l2
-52 -41 2 c-23 1 -49 3 -57 4 -20 1 -59 37 -94 84 -16 20 -39 40 -52 43 -27 7
-94 -13 -94 -28 0 -5 16 -28 35 -50 19 -23 32 -44 30 -48 -2 -4 -38 -7 -78 -7
-41 0 -80 -4 -86 -8 -33 -20 -28 -99 7 -109 10 -3 45 -4 80 -3 34 2 68 0 74
-4 14 -9 -8 -45 -54 -88 l-32 -30 29 -11 c43 -17 57 -18 87 -8 25 9 106 89
126 125 12 21 111 24 117 3 7 -25 -1 -94 -13 -116 -12 -23 -78 -84 -91 -84
-11 0 -31 -47 -31 -73 0 -12 9 -33 20 -47 l20 -25 23 27 c13 16 28 28 35 28 7
0 12 5 12 10 0 6 6 10 14 10 10 0 13 -19 13 -82 0 -67 3 -84 19 -95 24 -17 55
-17 82 3 19 13 22 24 21 77 -2 116 -4 111 32 90 17 -10 43 -33 57 -51 23 -30
26 -31 37 -15 21 31 24 76 8 107 -17 34 -89 103 -115 111 -10 4 -18 12 -19 18
-4 63 -3 110 4 114 19 12 119 6 127 -8 22 -39 69 -90 104 -113 40 -26 81 -27
119 -1 16 11 15 14 -16 39 -18 14 -41 40 -50 56 l-18 30 43 1 c24 1 58 1 77 0
48 -1 81 22 81 59 0 50 -28 66 -115 64 -88 -2 -92 5 -38 61 l36 37 -24 19
c-45 35 -75 25 -144 -46 -34 -36 -68 -66 -76 -66 -8 -1 -35 -2 -61 -4 -47 -2
-48 -1 -49 29 -2 62 3 81 24 96 51 35 101 87 114 119 13 30 13 38 -3 73 -9 21
-20 38 -23 38 -3 0 -15 -13 -25 -29 -21 -31 -73 -67 -83 -57 -3 3 -5 39 -5 81
1 54 -3 79 -14 90 -9 8 -18 15 -22 16 -4 0 -15 2 -24 4 -10 2 -28 -5 -39 -14z"/>
</g>
</svg>
